<svg xmlns="http://www.w3.org/2000/svg" width="128" height="128" viewBox="0 0 128 128" fill="none"><path fill-rule="evenodd" clip-rule="evenodd" d="M85.0599 114.661H12.4355C7.77523 114.661 4 110.886 4 106.225V38.7417C4 38.2183 4.0932 37.7212 4.2702 37.2617L13.5576 10.6563C14.7429 7.26986 17.9354 5 21.5205 5H87.705C91.2901 5 94.4825 7.26892 95.6678 10.6563L104.955 37.2617C105.132 37.7212 105.225 38.2192 105.225 38.7417V69.1889L118.904 72.6091C120.494 73.0054 121.709 74.2924 122.021 75.9032C125.572 94.3265 124.206 104.967 119.026 111.985C115.454 116.827 109.979 120.125 102.438 122.846C101.531 123.171 100.54 123.179 99.6287 122.863C93.4077 120.712 88.5826 118.147 85.0606 114.659L85.0599 114.661ZM114.225 80.1381C116.595 93.5548 116.208 101.598 112.238 106.975C109.771 110.315 105.971 112.475 100.981 114.39C95.937 112.534 92.1034 110.421 89.6311 107.097C85.6412 101.737 85.3078 93.6553 87.7755 80.1376L101.007 76.8311L114.225 80.1381ZM96.789 69.1889V42.9594H12.4345V106.225H79.7374C77.3036 99.3885 77.2274 89.8646 79.9991 75.8842C80.3154 74.2819 81.5299 73.008 83.1115 72.6117L96.79 69.1915L96.789 69.1889ZM41.9586 59.8299H67.2649C69.5932 59.8299 71.4827 57.9404 71.4827 55.6121C71.4827 53.2839 69.5932 51.3944 67.2649 51.3944H41.9586C39.6303 51.3944 37.7408 53.2839 37.7408 55.6121C37.7408 57.9404 39.6303 59.8299 41.9586 59.8299ZM50.394 13.4349V34.5235H14.1553L21.5195 13.4349H50.394ZM58.8295 13.4349H87.7028L95.067 34.5235H58.8283L58.8295 13.4349Z" fill="currentColor"></path></svg>