<svg xmlns="http://www.w3.org/2000/svg" width="128" height="128" viewBox="0 0 128 128" fill="none"><path fill-rule="evenodd" clip-rule="evenodd" d="M100.597 4H28.1723C24.2493 4 20.7558 6.48284 19.4588 10.1896L9.29567 39.3035C9.10199 39.8062 9 40.3512 9 40.923V114.769C9 119.869 13.1312 124 18.2308 124H110.539C115.638 124 119.769 119.869 119.769 114.769V40.923C119.769 40.3502 119.667 39.8062 119.474 39.3035L109.311 10.1896C108.014 6.48387 104.52 4 100.597 4H100.597ZM110.539 45.5385V114.769H18.2308V45.5385H110.539ZM50.5385 64.0001H78.2309C80.7786 64.0001 82.8462 61.9324 82.8462 59.3847C82.8462 56.8369 80.7786 54.7693 78.2309 54.7693H50.5385C47.9908 54.7693 45.9231 56.8369 45.9231 59.3847C45.9231 61.9324 47.9908 64.0001 50.5385 64.0001ZM59.7693 13.2308V36.3077H20.1139L28.1723 13.2308H59.7693ZM69.0001 13.2308H100.596L108.654 36.3077H68.9988L69.0001 13.2308Z" fill="currentColor"></path></svg>