<svg xmlns="http://www.w3.org/2000/svg" width="128" height="128" viewBox="0 0 128 128" fill="none"><path fill-rule="evenodd" clip-rule="evenodd" d="M27.9996 65.9999V33.9999C27.9996 33.5276 28.0835 33.0723 28.2317 32.6482L35.2916 11.4722C36.3836 8.20434 39.4397 6 42.8836 6H93.1166C96.5602 6 99.6167 8.20356 100.709 11.4722L107.768 32.6482C107.917 33.0723 108.001 33.5285 108.001 33.9999V56.5999C111.52 56.1079 115.197 56.8677 118.328 58.9356V58.9392C121.496 61.0356 123.556 64.4427 123.936 68.2231C124.317 72.0034 122.98 75.7552 120.293 78.439C111.12 87.6114 95.9179 102.818 88.6722 110.064C85.2399 113.496 81.0758 116.1 76.4919 117.684C76.4803 117.687 76.4642 117.692 76.4517 117.695C69.2517 120.103 62.8195 121.487 53.8321 121.895C47.2561 122.371 40.6644 121.199 34.6884 118.503C32.4366 117.592 29.9723 116.535 27.8402 115.607C27.0964 119.255 23.8678 121.999 20 121.999H12C7.58033 121.999 4 118.419 4 113.999V65.999C4 61.5794 7.58033 57.9991 12 57.9991H20C24.4196 57.9991 27.9999 61.5794 27.9999 65.999L27.9996 65.9999ZM11.9997 65.9999V114H19.9996V65.9999H11.9997ZM27.9996 106.939V80.1141L44.488 69.982C47.3282 68.2338 51.0318 68.9784 52.9799 71.6856L52.9835 71.6936C53.6835 72.6659 53.9236 73.8936 53.6397 75.0579C53.3558 76.2222 52.5754 77.2017 51.5076 77.7418C43.9638 81.5535 38.7915 86.3578 38.7915 86.3578C37.5835 87.4774 37.1835 89.222 37.7879 90.7541C38.3879 92.2863 39.8638 93.2942 41.512 93.2942H66.7714C72.8116 93.2942 78.6276 91.0184 83.0632 86.9183C89.2276 81.2147 98.991 72.1905 105.363 66.2987C107.711 64.1263 111.243 63.8424 113.911 65.6067C115.079 66.379 115.835 67.6344 115.975 69.0227C116.116 70.4146 115.624 71.795 114.635 72.7825L83.0102 104.408C80.4424 106.975 77.3263 108.927 73.8941 110.116C67.378 112.291 61.554 113.54 53.394 113.908C53.3583 113.911 53.3217 113.911 53.286 113.916C48.0021 114.3 42.702 113.356 37.878 111.172C37.8298 111.148 37.778 111.128 37.7298 111.108C34.3335 109.727 30.4263 108.016 27.9977 106.94L27.9996 106.939ZM99.9994 37.9999H35.9996V65.8079L40.2995 63.1676C46.7111 59.2275 55.0754 60.9034 59.4718 67.0159C59.4753 67.0159 59.4753 67.0194 59.4798 67.0239C61.5441 69.8918 62.2521 73.524 61.4119 76.9596C60.5717 80.3918 58.2718 83.2874 55.1155 84.8837C54.8432 85.0194 54.5753 85.1596 54.3155 85.2953H66.7717C70.7957 85.2953 74.6752 83.7793 77.6315 81.0435C83.7993 75.3434 99.9992 60.3631 99.9992 60.3631V37.9988L99.9994 37.9999ZM59.9995 49.9999H75.9995C78.2075 49.9999 79.9995 48.2079 79.9995 45.9999C79.9995 43.7919 78.2075 41.9999 75.9995 41.9999H59.9995C57.7915 41.9999 55.9995 43.7919 55.9995 45.9999C55.9995 48.2079 57.7915 49.9999 59.9995 49.9999ZM63.9995 14V30H37.547L42.8828 14H63.9995ZM71.9995 14H93.1155L98.4513 30H71.9988L71.9995 14Z" fill="currentColor"></path></svg>