<svg xmlns="http://www.w3.org/2000/svg" width="128" height="128" viewBox="0 0 128 128" fill="none"><path fill-rule="evenodd" clip-rule="evenodd" d="M27.9999 72.7282V71.5765C27.9999 67.1568 24.4196 63.5765 20 63.5765H12C7.58033 63.5765 4 67.1568 4 71.5765V116.001C4 120.421 7.58033 124.001 12 124.001H20C23.8678 124.001 27.0964 121.258 27.8402 117.609C29.9723 118.537 32.4365 119.593 34.6884 120.506C40.6643 123.202 47.2561 124.374 53.8321 123.898C62.8204 123.49 69.2517 122.106 76.4517 119.698C76.4633 119.694 76.4793 119.69 76.4918 119.686C81.0758 118.102 85.2399 115.498 88.6722 112.067C95.9158 104.823 111.12 89.6148 120.293 80.4416C122.981 77.7577 124.317 74.006 123.936 70.2256C123.556 66.4453 121.496 63.0373 118.328 60.9418V60.9382C112.585 57.1382 104.988 57.7542 99.932 62.4266C93.5597 68.323 83.7999 77.3461 77.6322 83.0462C74.6759 85.782 70.7966 87.2981 66.7723 87.2981H54.3161C54.576 87.1624 54.8438 87.0222 55.1161 86.8865C58.2725 85.29 60.5724 82.3946 61.4126 78.9624C62.2528 75.5267 61.5447 71.8945 59.4804 69.0266C59.4769 69.0231 59.4769 69.0186 59.4724 69.0186C55.0761 62.9071 46.7127 61.2303 40.3001 65.1704L28.0003 72.7301L27.9999 72.7282ZM20 116.001V71.5763H12V116.001H20ZM27.9999 108.941V82.1163L44.4883 71.9842C47.3286 70.236 51.0321 70.9807 52.9802 73.6878L52.9838 73.6958C53.6838 74.6682 53.9239 75.8958 53.64 77.0602C53.3561 78.2245 52.5757 79.2039 51.5079 79.7441C43.9641 83.5557 38.7918 88.36 38.7918 88.36C37.5838 89.4797 37.1838 91.2242 37.7882 92.7564C38.3882 94.2885 39.8641 95.2965 41.5123 95.2965H66.7717C72.8119 95.2965 78.6279 93.0206 83.0635 88.9205C89.2279 83.217 98.9913 74.1928 105.363 68.3009C107.711 66.1286 111.244 65.8447 113.911 67.6089C115.079 68.3813 115.836 69.6366 115.976 71.0249C116.116 72.4169 115.624 73.7973 114.636 74.7847L83.0105 106.41C80.4427 108.977 77.3266 110.929 73.8944 112.118C67.3783 114.294 61.5543 115.542 53.3943 115.91C53.3586 115.913 53.322 115.913 53.2863 115.918C48.0024 116.302 42.7023 115.358 37.8784 113.174C37.8301 113.15 37.7784 113.13 37.7301 113.11C34.3338 111.729 30.4266 110.018 27.9981 108.942L27.9999 108.941ZM57.3278 51.0604C47.3242 48.1686 40.0001 38.9327 40.0001 27.9999C40.0001 14.7563 50.7564 4 64.0001 4C71.5481 4 78.2885 7.49188 82.6885 12.9437C92.6848 15.8438 99.9999 25.0715 99.9999 35.9997C99.9999 49.2433 89.2436 59.9996 76 59.9996C68.4563 59.9996 61.7196 56.5112 57.3278 51.0595V51.0604ZM87.8466 25.3051C87.9466 26.189 87.9984 27.089 87.9984 28.0015C87.9984 38.9416 80.6626 48.1818 70.6467 51.0666C72.3109 51.6782 74.1189 52.0023 75.9984 52.0023C84.8306 52.0023 91.9984 44.8346 91.9984 36.0024C91.9984 31.8746 90.4341 28.1139 87.8466 25.3059L87.8466 25.3051ZM63.9975 12.0016C72.8297 12.0016 79.9975 19.1693 79.9975 28.0015C79.9975 36.8337 72.8297 44.0015 63.9975 44.0015C55.1653 44.0015 47.9976 36.8337 47.9976 28.0015C47.9976 19.1693 55.1653 12.0016 63.9975 12.0016Z" fill="currentColor"></path></svg>